<?xml version="1.0" encoding="UTF-8" standalone="no"?>
<!-- Generator: Adobe Illustrator 21.0.2, SVG Export Plug-In . SVG Version: 6.00 Build 0)  -->

<svg
   xmlns:dc="http://purl.org/dc/elements/1.1/"
   xmlns:cc="http://creativecommons.org/ns#"
   xmlns:rdf="http://www.w3.org/1999/02/22-rdf-syntax-ns#"
   xmlns:svg="http://www.w3.org/2000/svg"
   xmlns="http://www.w3.org/2000/svg"
   xmlns:sodipodi="http://sodipodi.sourceforge.net/DTD/sodipodi-0.dtd"
   xmlns:inkscape="http://www.inkscape.org/namespaces/inkscape"
   version="1.1"
   id="Layer_1"
   x="0px"
   y="0px"
   viewBox="0 0 612 242"
   style="enable-background:new 0 0 612 242;"
   xml:space="preserve"
   sodipodi:docname="Bajaj_Motorcycles_logo_logotype_emblem.svg"
   inkscape:version="0.92.1 r15371"><metadata
     id="metadata33"><rdf:RDF><cc:Work
         rdf:about=""><dc:format>image/svg+xml</dc:format><dc:type
           rdf:resource="http://purl.org/dc/dcmitype/StillImage" /></cc:Work></rdf:RDF></metadata><defs
     id="defs31" /><sodipodi:namedview
     pagecolor="#ffffff"
     bordercolor="#666666"
     borderopacity="1"
     objecttolerance="10"
     gridtolerance="10"
     guidetolerance="10"
     inkscape:pageopacity="0"
     inkscape:pageshadow="2"
     inkscape:window-width="1366"
     inkscape:window-height="705"
     id="namedview29"
     showgrid="false"
     inkscape:zoom="1.9787582"
     inkscape:cx="306"
     inkscape:cy="121"
     inkscape:window-x="-8"
     inkscape:window-y="-8"
     inkscape:window-maximized="1"
     inkscape:current-layer="Layer_1" /><style
     type="text/css"
     id="style10">
	.st0{fill:#012E62;}
</style><g
     id="g26"><g
       id="g24"><path
         class="st0"
         d="M586.9,79.7c-0.5,1.6-0.8,2.8-1.2,3.9c-13.1,33.3-26.2,66.5-39.3,99.8c-1.3,3.3-2.9,4.8-6.7,5.1    c-47.3,3.7-94.5,7.7-141.8,11.6c-38.2,3.1-76.4,6.2-114.6,9.3c-38.1,3.1-76.1,6.3-114.2,9.4c-32.1,2.6-64.2,5.2-96.3,7.8    c-15.9,1.3-31.9,2.6-47.8,3.9c-4.2,0.3-4.3,0.2-3.3-3.9C39.4,156.7,56.9,86.8,74.4,16.9c0.8-3,2.2-3.7,5-3.3    C113,18,146.5,22.4,180,26.8c31.8,4.1,63.6,8.2,95.4,12.3c29.8,3.9,59.6,7.8,89.5,11.7c28,3.6,56,7.2,83.9,10.8    c26,3.4,52,6.8,78,10.2c18.2,2.4,36.4,4.7,54.6,7C583.1,79,584.8,79.3,586.9,79.7z M93.6,135.8c9.4-4.3,18.5-8.1,27.2-12.7    c5.1-2.7,9.6-3.3,14.4,0.1c1,0.7,1.9,1.7,2.9,2.5c-0.9,0.7-1.8,1.6-2.9,2.1c-9.6,4.5-19.2,8.8-29.3,13.5c6,2.7,11.9,4.7,17,8    c9.1,5.9,17.4,5.1,26.7,0c9.8-5.4,20.3-9.4,30.4-14.3c1.8-0.9,4-2.9,4.1-4.5c0.1-1.5-2.2-3.5-3.9-4.6c-2.4-1.6-5.1-2.5-7.7-3.7    c-8-3.7-15.9-7.3-24.5-11.2c1.7-0.9,2.8-1.4,3.9-1.9c9.5-4.4,19.1-8.6,28.5-13.2c1.7-0.8,3.7-2.8,3.8-4.3c0-1.5-2-3.7-3.6-4.4    c-13.6-6.4-27.3-12.8-41.1-18.8c-2-0.9-5-0.7-7,0.2c-7.9,3.3-15.7,7.1-23.5,10.7c-0.8,0.4-1.6,0.8-2.7,1.5    c8.9,4.1,17.4,7.9,25.9,11.9c2.1,1,4,2.5,6,3.8c-2,1.2-4,2.3-5.9,3.6c-2.8,1.9-5.3,1.7-8.3,0.1c-3.7-2-7.7-3.6-11.5-5.4    c-6.2-2.8-12.4-5.6-18.8-8.5c0,5.6-0.1,10.7,0.1,15.9c0.1,1.1,1.2,2.6,2.2,3.1c3.8,2,7.7,3.7,12.2,5.8c-4.7,2.2-8.7,3.9-12.5,5.9    c-0.9,0.5-1.9,1.9-2,3C93.5,125,93.6,130.1,93.6,135.8z M228,133c12.9,0,25.5,0.2,38.1-0.1c4.4-0.1,9-0.7,13.2-1.9    c4.4-1.2,6.8-4.6,7-9.2c0.2-4.3-1.8-7.4-5.6-9.4c-0.9-0.5-1.7-1-2.8-1.7c7.4-3.6,9.9-8.1,7.7-13.7c-1.9-4.7-6.2-6.4-10.8-6.9    c-5.6-0.6-11.2-0.7-16.8-0.8c-10-0.1-19.9,0-30,0C228,103.9,228,118.3,228,133z M469.1,133.1c-8.8-14.6-17.2-28.6-25.7-42.4    c-0.5-0.8-2-1.3-3-1.4c-4.1-0.2-8.2,0.1-12.4-0.1c-2.4-0.1-3.8,0.6-5,2.7c-5.3,9.1-10.9,18.2-16.3,27.3c-2.7,4.4-5.3,8.9-8.3,13.9    c5.1,0,9.6,0.2,14-0.1c1.4-0.1,3.2-1.2,3.9-2.4c3.5-5.7,6.7-11.7,10-17.5c2.4-4.2,4.8-8.4,7.4-12.9c3,5.4,5.8,10.2,9,16    c-8.9-1.1-16.2-0.9-18.4,9.1c5.9,0,11.9,0.3,17.9-0.1c4.3-0.3,7,0.9,8.7,5c0.5,1.3,2.3,2.8,3.6,2.9    C459.1,133.3,463.7,133.1,469.1,133.1z M328.8,115.9c-8.4-0.5-16.3-1.1-18.1,9.3c6.5,0,13,0.2,19.5-0.1c3-0.1,4.8,0.8,6,3.6    c0.8,1.7,2.3,4,3.6,4.2c4.9,0.5,9.8,0.2,15,0.2c-0.2-0.8-0.3-1.2-0.4-1.5c-8.1-13.6-16.3-27.2-24.5-40.7c-0.6-0.9-2.1-1.6-3.2-1.7    c-4.4-0.2-8.7,0-13.1-0.1c-2-0.1-3.1,0.6-4.1,2.3c-7.7,13-15.5,25.8-23.3,38.8c-0.5,0.8-0.8,1.6-1.3,2.8c1.2,0,1.9,0,2.7,0    c4.5-0.1,9.8,1.3,13.2-0.7c3.4-2,4.8-7.3,7-11.2c4-6.9,8-13.9,12.1-21.2C322.9,105.5,325.6,110.3,328.8,115.9z M385.9,89.4    c0,9.7,0,19,0,28.4c0,4.3-1.5,5.8-5.8,6c-1.5,0.1-3,0-4.5,0c-7,0-14,0-21.6,0c1.6,2.6,2.5,4.8,4,6.6c1,1.2,2.8,2.5,4.3,2.5    c9.3,0.1,18.7,0.2,28-0.3c5.1-0.3,9.2-4,9.3-8.7c0.3-11.4,0.1-22.9,0.1-34.5C395.3,89.4,390.8,89.4,385.9,89.4z M499.9,89.4    c0,8.9,0,17.5,0,26.1c0,7.1-1.1,8.2-8.3,8.2c-7.8,0-15.5,0-23.8,0c1.4,2.3,2.2,4.4,3.6,5.9c1.4,1.5,3.5,3.3,5.3,3.3    c9,0.2,18,0.2,26.9-0.3c5.8-0.3,9.8-4.3,10-9.8c0.3-11.1,0.1-22.1,0.1-33.4C509.2,89.4,504.7,89.4,499.9,89.4z M239.4,158.2    c-2-4.3-3.7-8.2-5.7-11.9c-0.6-1.1-1.9-1.7-3.3-3c-1.2,7.9-2.1,14.6-3.2,21.7c1.1-0.1,2-0.1,2.8-0.2c0.4-4.2,0.7-8.1,1.2-13.1    c2.5,5.2,4.6,9.5,7.1,14.5c2.5-5.2,4.5-9.3,6.5-13.5c0.2,0,0.4,0.1,0.7,0.1c0.4,4,0.8,8,1.2,11.9c1.8,0,3.2,0,4.8,0    c-0.8-7-1.7-13.8-2.5-20.6c-0.9,0-1.9-0.2-2.1,0C244.5,148.6,242.2,153.1,239.4,158.2z M273.2,143.6c-6.8,0.1-11.5,4.7-11.4,11.2    c0,6.7,4.5,11,11.5,10.8c6.6-0.1,11.5-5.1,11.3-11.4C284.5,147.7,280,143.5,273.2,143.6z M339.6,154.5c0.1-6.5-4.4-10.9-11.2-10.9    c-6.7-0.1-11.7,4.4-11.8,10.9c-0.2,6.7,4.3,11.1,11.3,11.1C334.5,165.6,339.6,160.8,339.6,154.5z M360.6,155    c3.1-1.6,5.2-3.6,4.2-7.2c-1-3.8-4.1-3.9-7.2-3.8c-2.2,0-4.4,0-6.4,0c0,7.4,0,14.2,0,20.9c1.7,0,3.1,0,5,0c0-2.6,0-5,0-7.8    c3.3,3.2,3,10,10.1,7.6c-0.9-1.5-1.8-3-2.7-4.4C362.7,158.6,361.8,157,360.6,155z M445.8,162.4c-0.3-0.3-0.6-0.6-0.8-0.9    c-5,2.8-8.2,2.6-10.6-0.7c-2.6-3.5-2.1-10.2,1-13.2c2.8-2.7,5-2.5,9.3,0.9c0.3-1.1,0.6-2.2,0.9-3.2c-5.6-2.6-11.9-1.8-15.1,1.8    c-3.2,3.5-3.7,10.1-1.2,14c2.5,3.8,7.9,5.6,13,4C443.6,164.7,444.6,163.3,445.8,162.4z M392.8,148.2c0.3-0.2,0.7-0.3,1-0.5    c-0.5-1.1-0.7-2.8-1.5-3.2c-4-2.2-11.2-0.4-14,3.1c-3,3.7-3.1,10.4-0.3,14c2.8,3.6,9.4,5.3,13.6,3.2c0.8-0.4,1.1-1.6,1.7-2.4    c-5.7,1.9-8.7,1.4-10.8-2c-2.5-3.8-1.7-10.4,1.4-13.2C386.6,144.9,388.9,145.1,392.8,148.2z M501.7,164.6c2,0.4,3.5,0.9,5.1,0.9    c3.9,0.1,7-2.1,7.7-5.3c0.8-3.8-0.9-6.2-4.2-7.8c-1.1-0.5-2.5-1-3.2-1.9c-0.7-0.9-1.3-3-0.8-3.4c0.9-0.8,2.5-1.2,3.8-1.1    c0.9,0.1,1.7,1.2,3.6,2.5c-0.5-2.1-0.4-3.6-1-4.1c-3.2-2.4-8.9-0.3-10.2,3.5c-1.3,3.8,0.2,6,5.2,8.9c1.3,0.8,2.4,2.3,3.1,3.7    c0.2,0.5-1.4,2.6-2,2.5c-1.6-0.2-3.2-1.2-4.8-1.9c-0.3-0.1-0.6-0.5-1-0.8C502.5,161.7,502.2,162.9,501.7,164.6z M480,165.1    c3.4,0,6.4,0.1,9.3-0.1c0.7-0.1,1.4-1.1,2.1-1.7c-0.3-0.2-0.5-0.5-0.8-0.7c-1.9,0-3.9,0-5.9,0c0-2.5,0-4.8,0-7.1    c6.3-0.5,6.3-0.5,5.8-2.8c-1.9,0-3.9,0-5.7,0c0-2.2,0-4.1,0-5.5c2-1.8,5.8,1.8,6.7-2.8c-4.3,0-8,0-11.6,0    C480,151.3,480,158,480,165.1z M411.5,164.9c0.5-3.9,0.5-7.6,1.5-10.9c1.1-3.4,3.2-6.4,5.2-10c-5.9,0.2-3.9,6.8-7.7,8.3    c-1.4-2.8-2.7-5.5-4.1-8.2c-1.8,0-3.4,0-5.4,0c3.2,6.8,8.2,12.8,6,20.8C409,164.9,410.3,164.9,411.5,164.9z M301.8,164.9    c0-6.3,0-12.2,0-18.1c4.9-0.2,4.9-0.2,4.5-2.6c-4.8,0-9.7,0-14.6,0c0.1,0.9,0,2.2,0.2,2.2c1.6,0.2,3.3,0.3,5.2,0.4    c0,6.2,0,12.2,0,18.2C298.8,164.9,300.1,164.9,301.8,164.9z M457.2,144.1c0,7.1,0,13.9,0,20.6c10.2,0.9,11.1,0.7,11-2.2    c-2,0-4.1,0-6.4,0c0-6.3,0-12.3,0-18.4C460.2,144.1,458.9,144.1,457.2,144.1z"
         id="path12" /><path
         class="st0"
         d="M242.1,114.8c8,0,15.7,0,23.4,0c2.8,0,5,1.4,5.1,4.3c0.1,3.2-2.3,4.5-5.2,4.6c-4,0.1-8,0.3-12,0    c-4.6-0.4-7.7,1.2-9.5,5.4c-0.3,0.7-0.8,1.4-1.8,3C242.1,125.7,242.1,120.4,242.1,114.8z"
         id="path14" /><path
         class="st0"
         d="M242,113.6c0-5.3,0-9.8,0-15c3.5,0,6.9,0,10.3,0c4.6,0,9.2-0.1,13.9,0.1c2.2,0.1,4.8,0.8,4.3,3.5    c-0.2,1.3-2.7,2.9-4.3,3.1c-4.2,0.4-8.5,0.4-12.7,0.1c-4.6-0.4-7.7,1.3-9.5,5.5C243.5,111.6,242.9,112.3,242,113.6z"
         id="path16" /><path
         class="st0"
         d="M266.8,154.1c0.3-1.1,0.3-3.4,1.4-4.8c1.3-1.7,3.6-3.6,5.4-3.5c1.8,0.1,4.4,2.2,5,4c0.9,2.6,0.8,5.9,0.2,8.7    c-0.6,3.1-2.9,5.3-6.4,5c-3.4-0.3-4.8-2.8-5.3-5.8C266.9,156.8,266.9,155.9,266.8,154.1z"
         id="path18" /><path
         class="st0"
         d="M334.5,154.5c-0.2,5.4-3,9.2-6.9,9c-3.8-0.2-6.1-3.7-5.9-9.3c0-0.1,0-0.2,0-0.4c0.3-5.1,3.2-8.6,6.7-8.3    C332.1,145.8,334.6,149.5,334.5,154.5z"
         id="path20" /><path
         class="st0"
         d="M356.1,146.3c3.2-0.6,4.2,1,4.2,3.5c-0.1,2.5-1,4.3-4.2,4C356.1,151.3,356.1,148.9,356.1,146.3z"
         id="path22" /></g></g><path
     style="fill:#ffffff;stroke:#ffffff;stroke-width:0.50536746;stroke-opacity:1"
     d="m 129.72783,152.20703 c -0.97283,-0.36354 -5.06631,-2.35071 -9.09662,-4.41594 -4.0303,-2.06523 -8.80602,-4.37488 -10.61271,-5.13256 l -3.28489,-1.37759 14.53095,-6.70759 c 7.99202,-3.68918 15.15561,-7.20042 15.91907,-7.80276 l 1.38813,-1.09517 -2.02147,-1.7746 c -1.11181,-0.97603 -3.13143,-2.14713 -4.48806,-2.60243 -3.98442,-1.33722 -6.4957,-0.73982 -15.94546,3.79322 -7.68957,3.68868 -21.781555,10.15975 -22.124798,10.15975 -0.07988,0 -0.145234,-3.47433 -0.145234,-7.72074 0,-6.37355 0.146281,-7.9296 0.838326,-8.91763 0.485753,-0.69351 3.620738,-2.52293 7.454166,-4.34987 l 6.61585,-3.153 -6.55823,-3.21674 c -3.888332,-1.90719 -6.928589,-3.73624 -7.467951,-4.4928 -0.796693,-1.11752 -0.892304,-2.22708 -0.769594,-8.931101 l 0.140117,-7.655055 14.908338,6.829718 c 17.88853,8.194978 18.40199,8.395338 20.41663,7.966718 1.6014,-0.34071 8.89826,-4.607693 8.89027,-5.198758 -0.0114,-0.845653 -6.90523,-4.499612 -18.31516,-9.70771 -6.87931,-3.140084 -12.50784,-5.863133 -12.50784,-6.051219 0,-0.331172 17.74565,-8.650261 24.11607,-11.305516 1.72882,-0.720592 3.86616,-1.310167 4.74962,-1.310167 2.74241,0 43.52962,18.67429 46.03975,21.07915 1.85437,1.776598 1.78019,3.249776 -0.25357,5.03544 -0.91224,0.800958 -8.98549,4.835432 -17.94055,8.9655 -8.95505,4.13006 -16.28192,7.67032 -16.28192,7.86724 0,0.19692 7.21102,3.63385 16.02449,7.63764 16.18872,7.35421 19.8566,9.5369 19.8566,11.81633 0,1.96885 -3.442,4.1095 -14.94659,9.29561 -6.37186,2.87234 -13.95889,6.46587 -16.86005,7.98562 -7.46991,3.91304 -11.66555,5.22754 -16.54506,5.1836 -2.17461,-0.0196 -4.74979,-0.33305 -5.72262,-0.69659 z"
     id="path69"
     inkscape:connector-curvature="0" /><path
     style="fill:#ffffff;stroke:#ffffff;stroke-width:0.50536746;stroke-opacity:1"
     d="M 228.27448,111.3075 V 89.890483 l 7.20149,-0.332769 c 10.0862,-0.466067 38.8261,0.46277 42.17027,1.36289 5.12283,1.378861 8.24013,5.112688 8.24013,9.869816 0,3.15758 -1.8563,5.85549 -5.62394,8.17375 -2.55344,1.57115 -2.64156,1.69377 -1.69338,2.35635 4.3026,3.0066 5.66253,4.22258 6.43215,5.75128 1.85045,3.67558 0.5822,9.81192 -2.47833,11.99121 -4.114,2.92942 -11.02714,3.66152 -34.57562,3.66152 h -19.67277 z m 16.13392,17.55432 c 2.35127,-4.28558 2.79814,-4.44002 13.6814,-4.72854 8.66805,-0.22979 9.66069,-0.3488 10.9572,-1.31362 2.52222,-1.87697 2.12247,-6.45252 -0.6751,-7.72717 -0.79767,-0.36344 -5.67526,-0.56119 -13.84209,-0.56119 h -12.6104 v 8.945 c 0,9.70418 0.0547,9.82246 2.48899,5.38552 z m 0.1424,-18.48962 c 2.79994,-4.28592 3.58581,-4.55056 13.7689,-4.63659 5.71228,-0.0483 8.98527,-0.2804 9.71306,-0.68891 1.89909,-1.06598 2.69259,-2.16132 2.69259,-3.71684 0,-2.659906 -1.68835,-2.970322 -16.15553,-2.970322 h -12.65041 l 0.008,7.959542 c 0.004,4.37774 0.17482,7.72579 0.37903,7.44011 0.20421,-0.28568 1.21429,-1.80983 2.24463,-3.38699 z"
     id="path71"
     inkscape:connector-curvature="0" /><path
     style="fill:#ffffff;stroke:#ffffff;stroke-width:0.50536746;stroke-opacity:1"
     d="m 234.59474,158.08644 -3.48438,-6.916 -0.36292,3.28489 c -0.1996,1.80668 -0.51465,4.81994 -0.70011,6.69612 -0.28766,2.91013 -0.47976,3.41123 -1.3077,3.41123 -0.53378,0 -0.9716,-0.28427 -0.97294,-0.63171 -0.004,-1.04893 2.64348,-19.31534 2.82993,-19.52511 0.0952,-0.10714 0.69821,0.14923 1.33995,0.56971 0.68668,0.44994 2.40873,3.38297 4.18505,7.12807 1.66005,3.49995 3.13283,6.37054 3.27286,6.37909 0.14002,0.009 1.93425,-3.16828 3.98717,-7.05961 2.52191,-4.7803 4.0062,-7.07514 4.57618,-7.07514 0.71825,0 1.00931,1.40804 1.95877,9.47564 0.61334,5.2116 1.11162,9.75991 1.10729,10.10735 -0.005,0.39565 -0.7418,0.63171 -1.97196,0.63171 -1.92677,0 -1.96978,-0.0408 -2.26374,-2.14782 -0.16482,-1.18129 -0.44942,-3.91028 -0.63246,-6.06441 -0.20493,-2.41177 -0.55519,-3.91659 -0.91161,-3.91659 -0.31835,0 -1.93574,2.74933 -3.59421,6.10962 -1.65847,3.36029 -3.14036,6.18823 -3.2931,6.2843 -0.15273,0.0961 -1.84567,-2.93753 -3.76207,-6.74134 z"
     id="path73"
     inkscape:connector-curvature="0" /><path
     style="fill:#ffffff;stroke:#ffffff;stroke-width:0.50536746;stroke-opacity:1"
     d="m 270.27093,165.01832 c -3.15409,-0.60817 -5.43059,-2.33804 -6.88203,-5.22952 -4.07695,-8.12184 2.26476,-16.8672 11.443,-15.78018 3.84172,0.455 6.65401,2.33015 8.2261,5.48493 4.25059,8.52983 -3.05625,17.40106 -12.78707,15.52477 z m 6.24108,-2.25448 c 1.76713,-1.15787 2.80459,-4.25357 2.80459,-8.36871 0,-5.50051 -2.18349,-8.7332 -5.89876,-8.7332 -2.12489,0 -5.26168,2.47756 -6.0752,4.79842 -1.44089,4.11071 -0.42036,10.29448 2.01275,12.19596 1.42649,1.11481 5.52532,1.1764 7.15662,0.10753 z"
     id="path75"
     inkscape:connector-curvature="0" /><path
     style="fill:#ffffff;stroke:#ffffff;stroke-width:0.50536746;stroke-opacity:1"
     d="m 289.04341,132.85462 -3.66543,-0.17444 0.836,-1.62027 c 2.56894,-4.9789 23.74944,-39.709137 24.81785,-40.694488 1.23152,-1.135783 1.50784,-1.166729 9.02514,-1.010735 7.50397,0.155716 7.79477,0.201773 8.99311,1.424339 1.29843,1.32468 25.0609,40.646554 25.0609,41.470494 0,0.27432 -3.05868,0.47501 -7.23973,0.47501 -8.05797,0 -7.87205,0.0732 -10.35006,-4.07619 -2.28972,-3.83412 -1.90782,-3.73854 -14.28177,-3.57459 -8.9469,0.11854 -11.08253,0.0176 -11.07357,-0.52315 0.0239,-1.4406 1.94597,-4.82159 3.47025,-6.10419 2.15712,-1.81509 4.51624,-2.39284 9.78454,-2.39619 2.43209,-0.002 4.41611,-0.17338 4.40894,-0.38185 -0.0233,-0.6782 -8.47099,-15.50468 -8.90997,-15.63785 -0.44414,-0.134728 -13.17275,21.99172 -14.46722,25.14872 -1.50218,3.66357 -3.41283,6.08665 -5.57265,7.06722 -2.10825,0.95716 -2.74825,0.99308 -10.83633,0.60816 z"
     id="path77"
     inkscape:connector-curvature="0" /><path
     style="fill:#ffffff;stroke:#ffffff;stroke-width:0.50536746;stroke-opacity:1"
     d="m 297.50983,155.46606 v -9.09661 h -2.77952 c -2.44261,0 -2.77953,-0.12252 -2.77953,-1.01074 0,-0.96285 0.33692,-1.01073 7.1122,-1.01073 6.50052,0 7.09778,0.0761 6.94445,0.88439 -0.12237,0.64513 -0.74765,0.92643 -2.31121,1.03979 l -2.14345,0.1554 v 9.06756 9.06756 h -2.02147 -2.02147 z"
     id="path79"
     inkscape:connector-curvature="0" /><path
     style="fill:#ffffff;stroke:#ffffff;stroke-width:0.50536746;stroke-opacity:1"
     d="m 325.46999,165.04 c -4.43364,-0.86486 -7.1293,-3.31317 -8.23905,-7.48304 -2.2225,-8.35102 5.80573,-15.59935 14.63519,-13.21347 4.65198,1.25705 8.12359,6.56701 7.37091,11.27406 -0.72701,4.54644 -4.34236,8.56394 -8.30628,9.23023 -1.00951,0.16969 -2.17659,0.37493 -2.59352,0.45609 -0.41693,0.0812 -1.70719,-0.0376 -2.86725,-0.26387 z m 5.79378,-2.27951 c 4.20855,-2.94778 4.55593,-12.74141 0.57087,-16.09461 -1.82229,-1.53336 -5.12542,-1.7792 -6.92929,-0.51572 -3.97595,2.78486 -4.64281,12.11067 -1.13454,15.86628 1.21849,1.30439 1.80528,1.5355 3.89869,1.5355 1.4188,0 2.94371,-0.33578 3.59427,-0.79145 z"
     id="path81"
     inkscape:connector-curvature="0" /><path
     style="fill:#ffffff;stroke:#ffffff;stroke-width:0.50536746;stroke-opacity:1"
     d="m 361.00925,163.38651 c -0.87555,-0.92484 -2.27416,-2.80101 -3.10801,-4.16928 l -1.5161,-2.48775 -0.1476,3.9166 -0.1476,3.9166 h -2.2529 -2.25289 v -10.10735 -10.10735 h 5.02549 c 4.48406,0 5.16801,0.12259 6.34834,1.13786 0.90056,0.77463 1.41589,1.83151 1.61429,3.31072 0.27754,2.06919 0.18329,2.27409 -1.97546,4.29484 l -2.26691,2.12198 2.63755,4.5483 c 1.77098,3.05397 2.45126,4.6703 2.07055,4.9196 -1.16368,0.76203 -2.48298,0.33803 -4.02875,-1.29477 z m -2.00255,-9.8336 c 1.00388,-0.63832 1.7592,-3.28627 1.43316,-5.02425 -0.33529,-1.78725 -1.49301,-2.66458 -3.51613,-2.66458 -1.28389,0 -1.29664,0.0398 -1.29664,4.04294 v 4.04294 l 1.38976,-0.008 c 0.76436,-0.004 1.6598,-0.17944 1.98985,-0.38931 z"
     id="path83"
     inkscape:connector-curvature="0" /><path
     style="fill:#ffffff;stroke:#ffffff;stroke-width:0.50536746;stroke-opacity:1"
     d="m 360.93344,132.27013 c -1.41159,-0.63032 -3.41046,-2.90775 -5.03471,-5.73636 l -1.37842,-2.40049 h 13.45649 c 14.29384,0 16.26285,-0.27692 17.42629,-2.45083 0.35698,-0.66704 0.54604,-6.36856 0.54604,-16.46723 V 89.768291 h 6.82246 6.82246 l -0.0123,16.550789 c -0.007,9.51487 -0.23395,17.51755 -0.53363,18.82493 -0.30935,1.34963 -1.17749,2.96637 -2.13545,3.97686 -2.99524,3.15949 -3.59064,3.26158 -20.0601,3.43952 -8.19959,0.0886 -15.36317,-0.042 -15.91908,-0.29026 z"
     id="path85"
     inkscape:connector-curvature="0" /><path
     style="fill:#ffffff;stroke:#ffffff;stroke-width:0.50536746;stroke-opacity:1"
     d="m 384.6008,165.1141 c -5.18412,-1.3173 -8.25365,-5.06474 -8.25365,-10.07651 0,-6.77759 4.33748,-10.88411 11.53683,-10.92253 3.09656,-0.0165 3.82138,0.14103 4.42197,0.96122 0.39508,0.53954 0.71833,1.37916 0.71833,1.86582 0,0.78905 -0.23253,0.7519 -2.14781,-0.34318 -2.62002,-1.49802 -4.15922,-1.55068 -6.34648,-0.21714 -4.8498,2.95684 -4.81714,13.97121 0.0489,16.48753 1.14889,0.59412 2.41243,0.73735 4.80807,0.54506 3.18113,-0.25536 3.22959,-0.24082 2.299,0.68978 -1.09408,1.09407 -4.72002,1.61093 -7.08515,1.00995 z"
     id="path87"
     inkscape:connector-curvature="0" /><path
     style="fill:#ffffff;stroke:#ffffff;stroke-width:0.50536746;stroke-opacity:1"
     d="m 407.42618,160.39122 c -10e-4,-4.03718 -0.0876,-4.34043 -2.7754,-9.72615 -1.52588,-3.05747 -2.85199,-5.7296 -2.94691,-5.93807 -0.0949,-0.20846 0.86721,-0.37902 2.13805,-0.37902 h 2.31063 l 2.03275,4.04294 c 1.11801,2.22361 2.20078,4.03945 2.40614,4.0352 0.9242,-0.0192 1.68499,-0.9862 2.85216,-3.62537 1.07185,-2.42365 3.14078,-4.8134 3.69092,-4.26326 0.0915,0.0915 -0.84698,2.07611 -2.08539,4.41035 -2.1692,4.08863 -2.64189,5.83026 -3.58648,13.21434 -0.3038,2.37492 -0.32693,2.40047 -2.17124,2.39833 l -1.86416,-0.002 -0.001,-4.16712 z"
     id="path89"
     inkscape:connector-curvature="0" /><path
     style="fill:#ffffff;stroke:#ffffff;stroke-width:0.50536746;stroke-opacity:1"
     d="m 399.2356,132.3455 c 0.11362,-0.20846 5.80677,-9.72998 12.65145,-21.15892 10.34704,-17.277019 12.70105,-20.886001 13.96458,-21.409369 1.05296,-0.436152 3.69512,-0.569738 8.60291,-0.434957 6.75764,0.185582 7.13826,0.252108 8.28087,1.447357 0.95871,1.002879 18.21067,29.083839 24.28857,39.534419 l 1.39609,2.4005 h -7.41472 -7.41473 L 452.23974,131.28 c -0.74299,-0.79449 -1.80616,-2.20934 -2.36261,-3.14412 -1.678,-2.81886 -2.43352,-2.97621 -14.33043,-2.98442 l -10.79384,-0.007 0.32873,-1.38976 c 0.53612,-2.26652 2.92235,-5.2678 5.0872,-6.39842 1.6848,-0.87992 2.92627,-1.05575 7.45428,-1.05575 2.98804,0 5.43276,-0.033 5.4327,-0.0733 -8.1e-4,-0.51251 -9.04447,-15.93814 -9.343,-15.93617 -0.22639,0.002 -2.79016,4.17277 -5.69727,9.26949 -11.40913,20.00242 -12.48273,21.74113 -13.86703,22.45784 -1.46164,0.75675 -15.31258,1.06094 -14.91287,0.32752 z"
     id="path91"
     inkscape:connector-curvature="0" /><path
     style="fill:#ffffff;stroke:#ffffff;stroke-width:0.50536746;stroke-opacity:1"
     d="m 435.29102,164.95194 c -2.76102,-0.73094 -6.13727,-4.12566 -6.88543,-6.92311 -0.67506,-2.5241 -0.31219,-6.04537 0.86232,-8.36784 2.21646,-4.38284 6.77825,-6.35481 12.28485,-5.31051 3.14672,0.59676 3.74613,1.02948 3.31365,2.39211 -0.30136,0.94949 -0.38978,0.94133 -2.81687,-0.25982 -3.01929,-1.49423 -4.51958,-1.25847 -6.85531,1.07726 -5.16889,5.16889 -2.56172,15.99191 3.8523,15.99191 1.11107,0 2.83654,-0.34112 3.83439,-0.75805 2.44262,-1.02059 2.56851,-0.96681 1.18475,0.50614 -1.94537,2.07075 -5.01188,2.64805 -8.77465,1.65191 z"
     id="path93"
     inkscape:connector-curvature="0" /><path
     style="fill:#ffffff;stroke:#ffffff;stroke-width:0.50536746;stroke-opacity:1"
     d="m 459.85912,164.69546 -2.65317,-0.18561 v -10.08093 -10.08094 h 2.27415 2.27415 v 9.09661 9.09662 h 3.03221 c 2.38025,0 3.0322,0.16567 3.0322,0.77056 0,0.92296 -2.06556,1.79259 -3.9495,1.66279 -0.74627,-0.0514 -2.55079,-0.17701 -4.01004,-0.2791 z"
     id="path95"
     inkscape:connector-curvature="0" /><path
     style="fill:#ffffff;stroke:#ffffff;stroke-width:0.50536746;stroke-opacity:1"
     d="m 474.64112,131.80975 c -1.91133,-1.23374 -3.82536,-3.35434 -5.18095,-5.74009 l -1.05337,-1.85387 14.07276,-0.1676 c 13.34741,-0.15896 14.14563,-0.22204 15.48663,-1.22389 0.77764,-0.58096 1.56719,-1.60433 1.75456,-2.27415 0.18737,-0.66983 0.36335,-7.86976 0.39105,-15.99986 l 0.0504,-14.781999 h 6.56978 6.56977 l -0.0111,17.308839 c -0.0101,15.74682 -0.0953,17.49126 -0.94407,19.3303 -1.13974,2.46948 -2.71544,3.97145 -5.36883,5.11759 -1.70837,0.73794 -4.20372,0.90009 -16.41754,1.06678 -13.57333,0.18526 -14.49031,0.14021 -15.91908,-0.78205 z"
     id="path97"
     inkscape:connector-curvature="0" /><path
     style="fill:#ffffff;stroke:#ffffff;stroke-width:0.50536746;stroke-opacity:1"
     d="m 480.45285,158.88901 c 0,-3.46646 -0.14708,-8.04258 -0.32684,-10.16916 l -0.32684,-3.86651 h 5.61734 c 4.70435,0 5.57154,0.11933 5.33561,0.73418 -0.18992,0.4949 -1.21411,0.78312 -3.14269,0.88439 l -2.86096,0.15022 -0.15045,3.15855 -0.15046,3.15854 h 3.05632 c 2.36234,0 3.05632,0.16994 3.05632,0.74843 0,0.78537 -1.09608,1.16203 -4.04294,1.38931 l -1.76879,0.13642 -0.1476,3.9166 -0.1476,3.91659 h 3.41444 c 3.20639,0 3.36237,0.0521 2.55991,0.85453 -0.63601,0.63602 -2.02059,0.91028 -5.41465,1.07255 l -4.56012,0.21803 z"
     id="path99"
     inkscape:connector-curvature="0" /><path
     style="fill:#ffffff;stroke:#ffffff;stroke-width:0.50536746;stroke-opacity:1"
     d="m 503.32073,164.71139 c -1.27516,-0.24561 -1.35101,-0.53098 -0.63892,-2.40392 l 0.49816,-1.31026 2.00855,1.02468 c 2.71459,1.38489 4.36081,1.317 5.3688,-0.22139 0.76637,-1.16962 0.75034,-1.33894 -0.26113,-2.75943 -0.59268,-0.83233 -1.80765,-2.0138 -2.69994,-2.62548 -4.47783,-3.06962 -5.77995,-5.12763 -4.91072,-7.76143 1.51159,-4.58015 8.72622,-6.68458 10.14285,-2.95856 0.63544,1.67132 0.24102,2.08832 -0.9531,1.00766 -1.11442,-1.00854 -4.08792,-1.10012 -5.36638,-0.16528 -0.81498,0.59592 -0.85033,0.88986 -0.30559,2.54046 0.48306,1.46367 1.13779,2.13097 3.03334,3.09151 4.62295,2.34263 6.18114,5.75716 4.29323,9.40797 -1.52304,2.94523 -5.249,4.08884 -10.20915,3.13347 z"
     id="path101"
     inkscape:connector-curvature="0" /></svg>