<?xml version="1.0" encoding="UTF-8" standalone="no"?>
<!-- Generator: Adobe Illustrator 19.2.1, SVG Export Plug-In . SVG Version: 6.00 Build 0)  -->

<svg
   version="1.1"
   id="layer"
   x="0px"
   y="0px"
   viewBox="0 0 344.71719 508.11719"
   xml:space="preserve"
   width="344.71719"
   height="508.11719"
   xmlns="http://www.w3.org/2000/svg"
   xmlns:svg="http://www.w3.org/2000/svg"><defs
   id="defs43" />
<style
   type="text/css"
   id="style2">
	.st0{fill:#FFFFFF;}
	.st1{fill:none;stroke:#1A171B;stroke-width:12.3172;stroke-miterlimit:3.864;}
	.st2{fill:#1A171B;}
	.st3{fill:none;stroke:#1A171B;stroke-width:0.9055;stroke-miterlimit:3.864;}
	.st4{fill:#E2001A;}
	.st5{fill:none;stroke:#E2001A;stroke-width:0.9055;stroke-miterlimit:3.864;}
	.st6{fill:none;stroke:#1A171B;stroke-width:2.3086;}
</style>
<path
   class="st0"
   d="m 6.1585999,172.6586 c 0,-92 74.4000001,-166.5000001 166.2000001,-166.5000001 91.8,0 166.2,74.6000001 166.2,166.5000001 0,29.6 -7.7,57.3 -21.1,81.4 13.5,24.1 21.1,51.8 21.1,81.4 0,92 -74.4,166.5 -166.2,166.5 -91.8,0 -166.2000001,-74.6 -166.2000001,-166.5 0,-29.6 7.7000001,-57.3 21.2000001,-81.4 -13.5,-24 -21.2000001,-51.8 -21.2000001,-81.4"
   id="path4" />
<path
   class="st1"
   d="m 6.1585999,172.6586 c 0,-92 74.4000001,-166.5000001 166.2000001,-166.5000001 91.8,0 166.2,74.6000001 166.2,166.5000001 0,29.6 -7.7,57.3 -21.1,81.4 13.5,24.1 21.1,51.8 21.1,81.4 0,92 -74.4,166.5 -166.2,166.5 -91.8,0 -166.2000001,-74.6 -166.2000001,-166.5 0,-29.6 7.7000001,-57.3 21.2000001,-81.4 -13.5,-24 -21.2000001,-51.8 -21.2000001,-81.4 z"
   id="path6" />
<path
   class="st2"
   d="m 6.1585999,172.6586 c 0,-92 74.4000001,-166.5000001 166.2000001,-166.5000001 91.8,0 166.2,74.6000001 166.2,166.5000001 0,29.6 -7.7,57.3 -21.1,81.4 13.5,24.1 21.1,51.8 21.1,81.4 0,92 -74.4,166.5 -166.2,166.5 -91.8,0 -166.2000001,-74.6 -166.2000001,-166.5 0,-29.6 7.7000001,-57.3 21.2000001,-81.4 -13.5,-24 -21.2000001,-51.8 -21.2000001,-81.4"
   id="path8" />
<path
   class="st3"
   d="m 6.1585999,172.6586 c 0,-92 74.4000001,-166.5000001 166.2000001,-166.5000001 91.8,0 166.2,74.6000001 166.2,166.5000001 0,29.6 -7.7,57.3 -21.1,81.4 13.5,24.1 21.1,51.8 21.1,81.4 0,92 -74.4,166.5 -166.2,166.5 -91.8,0 -166.2000001,-74.6 -166.2000001,-166.5 0,-29.6 7.7000001,-57.3 21.2000001,-81.4 -13.5,-24 -21.2000001,-51.8 -21.2000001,-81.4 z"
   id="path10" />
<polyline
   class="st4"
   points="321.7,554.9 457.1,323.6 321.9,91.6 186.8,323.6 "
   id="polyline12"
   transform="translate(-149.6414,-69.1414)" />
<polygon
   class="st5"
   points="321.9,91.6 186.8,323.6 321.7,554.9 457.1,323.6 "
   id="polygon14"
   transform="translate(-149.6414,-69.1414)" />
<path
   class="st0"
   d="m 191.9586,245.7586 c 0.5,0 1,0.3 1.2,0.7 0.2,0.4 0.2,1.1 0.2,1.5 v 11.9 c 0,0.5 0.1,0.9 -0.2,1.4 -0.2,0.5 -0.7,0.7 -1.2,0.7 h -16.4 c -0.5,0 -0.9,-0.1 -1.4,0.2 -0.4,0.2 -0.7,0.7 -0.7,1.2 v 58.5 c 0,0.7 0.6,1.3 1.3,1.3 9.4,-0.1 14.1,-0.8 20.7,-1.8 1.7,-0.3 1.5,0.4 1.5,1.4 v 13.3 c 0,0.7 -0.4,1.4 -1.1,1.5 -12.2,1.9 -25,2.2 -37.4,1.1 -0.7,-0.1 -1.4,-0.9 -1.4,-1.6 v -166.2 c 0,-0.7 0,-1.3 1.3,-1.5 12.7,-1 24.7,-0.7 37.2,1.1 0.7,0.1 1.4,0.6 1.4,1.3 v 13.7 c 0,0.9 -0.7,1.4 -1.6,1.3 -6.7,-1.1 -13.4,-1.7 -20.8,-1.7 -0.7,0 -1.3,0.2 -1.3,1 v 57.3 c 0,0.6 -0.2,1.7 0.5,2.2 0.5,0.4 1,0.3 1.5,0.3 h 4.7 m 51.3,-47.2 c 0,-0.5 -0.4,-1.7 -0.9,-1.9 -3.1,-1.4 -8.3,-3.3 -12.5,-4.6 -2.1,-0.6 -1.8,1.4 -1.8,1.9 v 50.4 c 0,0.7 0.6,1.4 1.4,1.4 h 12.8 c 0.8,0 1.1,-0.7 1.1,-1.3 v -45.9 z m 17,-9.7 v 68.8 c 0,1.4 0.2,4.3 -2.1,4.3 h -7.7 l 1.2,3.9 14.4,48.3 c 0.4,1.3 0.8,2.4 0.3,3.1 -0.4,0.5 -1.3,0.8 -2.6,1.6 -1.6,0.9 -7.3,3.8 -9.8,4.9 -1.2,0.5 -1.6,0.9 -2.4,-0.8 -0.5,-1.2 -15.6,-53.1 -17.3,-58.3 -0.7,-2.2 -1,-2.8 -1.9,-2.8 h -3.5 v 67.9 c 0,1 0.2,3.2 -1.3,3.6 -3.8,1 -9.6,2.4 -12.3,2.8 -1.5,0.3 -2.5,0.9 -2.5,-1.3 v -160.5 c 0,-1.5 -0.1,-3.2 2.1,-2.8 5.7,1.1 11.1,2.4 16.1,3.9 13.1,3.8 23.4,8.8 25.6,9.8 2.3,1.2 3.8,1.6 3.7,3.6 m 42.8,54.6 c -4.7,-6.1 -10.2,-12.3 -15.8,-17.5 -1.2,-1.1 -1.8,-0.8 -1.8,0.7 v 17.7 c 0,0.7 0.4,1.2 1.2,1.2 5.6,-0.1 11.6,0 16,0 1.7,0 1.1,-1.3 0.4,-2.1 m 26.3,10.5 c 0,0 -2.6,4.7 -5.1,8.5 -1.9,3 -4.9,7.3 -4.9,7.3 0,0 -2.1,-4.4 -4,-7.8 -7.9,-0.1 -23.4,0 -28.1,0 -2,0 -1.7,1.8 -1.7,4 v 35.3 c 0,2.1 0.1,3.5 -1.1,4.5 -4.1,3.2 -8.9,6.4 -13,8.9 -2.7,1.7 -2,1.3 -2.1,-4.9 0,-2.5 0,-108.5 0,-113.5 0,-4.3 -0.5,-4.3 4.2,-1.4 2.4,1.5 16.5,10.6 28.5,22.9 8.8,9.1 17.8,19.6 27.3,36.2 m -290.1,0 c 22.7,-40.2 53.5,-58 62.3,-63.2 0.3,-0.2 1.7,-1.2 1.7,0.8 0,3.8 0.1,11 0,13.6 -0.1,3.1 0.2,3.3 -0.6,3.8 -16.7,10.7 -31.7,25.5 -43.2,42.6 -0.7,1 -1.1,2.7 0.1,4.6 1.3,2.3 12.5,18.5 27.5,30.8 v -23 c 0,-2.4 -1.4,-2.2 -3.1,-2.2 h -9.9 c -2,0 -1.8,-1.8 -1.8,-3.1 0,-1.3 0,-8.1 0,-10.6 0,-2.9 0.9,-2.5 3.1,-2.5 h 25.6 c 2.9,0 2.4,2.6 2.4,6 0,5 0.1,55.6 0,60.6 -0.1,5.2 0.4,6 -3.2,3.9 -33.9,-19.8 -51.7,-45.8 -60.9,-62.1 m 89,-75.5 c 3.9,-1.3 7.7,-2.6 11.6,-3.7 3.5,-0.9 3.1,-1.1 3.1,2.8 v 138 c 0,1.6 0.7,1.8 2,2.3 2.5,0.8 11,2.8 18.7,3.8 1.8,0.2 1.7,0 1.7,2.5 v 10.6 c 0,3.7 0.4,3.4 -2.9,2.9 -14.2,-1.8 -25.8,-5.4 -29.7,-6.8 -1.5,-0.5 -2.5,-0.9 -4.6,-1.6 -1.2,-0.4 -1.3,-1.7 -1.3,-3.6 0,-1 -0.1,-140.8 0,-143.2 0,-2.4 -0.3,-3.4 1.4,-4 m -21.3,10.1 c 0,-0.5 0.4,-0.9 0.8,-1.1 4.2,-2.2 9,-4.4 13.7,-6.3 0.9,-0.4 1.6,-0.1 1.7,1.3 0,0.9 0,138.4 0,140.1 v 2.6 c 0,1.3 0.1,2.4 -1.8,1.6 -4.6,-2 -9.2,-4 -13.5,-6.3 -0.4,-0.3 -0.9,-1 -0.9,-1.5 z"
   id="path16" />
<path
   class="st0"
   d="m 291.0586,243.5586 c -4.7,-6.1 -10.2,-12.3 -15.8,-17.5 -1.2,-1.1 -1.8,-0.8 -1.8,0.7 v 17.7 c 0,0.7 0.4,1.2 1.2,1.2 5.6,-0.1 11.6,0 16,0 1.7,0 1.1,-1.3 0.4,-2.1 m -268.9,-70.9 c 0,23.6 5.4,45.9 15,65.7 20.9,-29.3 44.7,-43.1 52.4,-47.5 0.3,-0.2 1.7,-1.2 1.7,0.8 0,3.8 0.1,11 0,13.6 -0.1,3.1 0.2,3.3 -0.6,3.8 -16.7,10.7 -31.7,25.5 -43.2,42.6 -0.7,1 -1.1,2.7 0.1,4.6 1.3,2.3 12.5,18.5 27.5,30.8 v -23 c 0,-2.4 -1.4,-2.2 -3.1,-2.2 h -9.9 c -2,0 -1.8,-1.8 -1.8,-3.1 0,-1.3 0,-8.1 0,-10.6 0,-2.9 0.9,-2.5 3.1,-2.5 h 25.6 c 2.9,0 2.4,2.6 2.4,6 0,5 0.1,55.6 0,60.6 -0.1,5.2 0.4,6 -3.2,3.9 -24.3,-14.3 -40.3,-31.9 -50.8,-46.6 -9.6,19.9 -15,42.2 -15,65.7 0,83.1 67.2,150.4 150.1,150.4 82.9,0 150.1,-67.4 150.1,-150.4 0,-23.6 -5.4,-45.8 -15,-65.7 0,0.1 -2.2,-4.3 -4.1,-7.8 -7.9,0 -23.4,0 -28.1,0 -2,0 -1.7,1.8 -1.7,4 v 35.3 c 0,2.1 0.1,3.5 -1.1,4.5 -4.1,3.2 -8.9,6.4 -13,8.9 -2.7,1.7 -2,1.3 -2.1,-4.9 0,-2.5 0,-108.5 0,-113.5 0,-4.3 -0.5,-4.3 4.2,-1.4 2.4,1.5 16.5,10.6 28.5,22.9 5.7,5.9 11.5,12.3 17.4,20.6 9.6,-19.8 15,-42.1 15,-65.7 0,-83.1 -67.2,-150.5 -150.1,-150.5 -83.1,0.3 -150.3,67.7 -150.3,150.7 m -16.0000001,0 c 0,-92 74.4000001,-166.5000001 166.2000001,-166.5000001 91.8,0 166.2,74.6000001 166.2,166.5000001 0,29.6 -7.7,57.3 -21.1,81.4 13.5,24.1 21.1,51.8 21.1,81.4 0,92 -74.4,166.5 -166.2,166.5 -91.8,0 -166.2000001,-74.6 -166.2000001,-166.5 0,-29.6 7.7000001,-57.3 21.2000001,-81.4 -13.5,-24 -21.2000001,-51.8 -21.2000001,-81.4 m 88.8000001,16 c 0,-0.5 0.4,-0.9 0.8,-1.1 4.2,-2.2 9,-4.4 13.7,-6.3 0.9,-0.4 1.6,-0.1 1.7,1.3 0,0.9 0,138.4 0,140.1 v 2.6 c 0,1.3 0.1,2.4 -1.8,1.6 -4.6,-2 -9.2,-4 -13.5,-6.3 -0.4,-0.3 -0.9,-1 -0.9,-1.5 z m 21.3,-10.1 c 3.9,-1.3 7.7,-2.6 11.6,-3.7 3.5,-0.9 3.1,-1.1 3.1,2.8 v 138 c 0,1.6 0.7,1.8 2,2.3 2.5,0.8 11,2.8 18.7,3.8 1.8,0.2 1.7,0 1.7,2.5 v 10.6 c 0,3.7 0.4,3.4 -2.9,2.9 -14.2,-1.8 -25.8,-5.4 -29.7,-6.8 -1.5,-0.5 -2.5,-0.9 -4.6,-1.6 -1.2,-0.4 -1.3,-1.7 -1.3,-3.6 0,-1 -0.1,-140.8 0,-143.2 0,-2.4 -0.3,-3.4 1.4,-4 m 132,10.4 v 68.8 c 0,1.4 0.2,4.3 -2.1,4.3 h -7.7 l 1.2,3.9 14.4,48.3 c 0.4,1.3 0.8,2.4 0.3,3.1 -0.4,0.5 -1.3,0.8 -2.6,1.6 -1.6,0.9 -7.3,3.9 -9.8,4.9 -1.2,0.5 -1.6,0.9 -2.4,-0.8 -0.5,-1.2 -15.6,-53.1 -17.3,-58.3 -0.7,-2.2 -1,-2.8 -1.9,-2.8 h -3.5 v 67.9 c 0,1 0.2,3.2 -1.3,3.6 -3.8,1 -9.6,2.4 -12.3,2.8 -1.5,0.3 -2.5,0.9 -2.5,-1.3 v -160.5 c 0,-1.5 -0.1,-3.2 2.1,-2.8 5.7,1.1 11.1,2.4 16.1,3.8 13.1,3.8 23.4,8.8 25.6,9.8 2.3,1.3 3.8,1.7 3.7,3.7 m -17,9.7 c 0,-0.5 -0.4,-1.7 -0.9,-1.9 -3.1,-1.4 -8.3,-3.3 -12.5,-4.6 -2.1,-0.7 -1.8,1.4 -1.8,1.9 v 50.4 c 0,0.7 0.6,1.4 1.4,1.4 h 12.8 c 0.8,0 1.1,-0.7 1.1,-1.3 v -45.9 z m -39.3,47.1 c 0.5,0 1,0.3 1.2,0.7 0.2,0.4 0.2,1.1 0.2,1.5 v 11.9 c 0,0.5 0.1,0.9 -0.2,1.4 -0.2,0.5 -0.7,0.7 -1.2,0.7 h -16.4 c -0.5,0 -0.9,-0.1 -1.4,0.2 -0.4,0.2 -0.7,0.7 -0.7,1.2 v 58.5 c 0,0.7 0.6,1.3 1.3,1.3 9.4,-0.1 14.1,-0.8 20.7,-1.8 1.7,-0.3 1.5,0.4 1.5,1.4 v 13.3 c 0,0.7 -0.4,1.4 -1.1,1.5 -12.2,1.9 -25,2.2 -37.4,1.1 -0.7,-0.1 -1.4,-0.9 -1.4,-1.6 v -166.2 c 0,-0.7 0,-1.3 1.3,-1.5 12.7,-1 24.7,-0.7 37.2,1.1 0.7,0.1 1.4,0.6 1.4,1.3 v 13.7 c 0,0.9 -0.7,1.4 -1.6,1.3 -6.7,-1.1 -13.4,-1.7 -20.8,-1.7 -0.7,0 -1.3,0.2 -1.3,1 v 57.3 c 0,0.6 -0.2,1.7 0.5,2.2 0.5,0.4 1,0.3 1.5,0.3 h 4.7 12 z"
   id="path18" />
<path
   class="st6"
   d="m 191.9586,245.7586 c 0.5,0 1,0.3 1.2,0.7 0.2,0.4 0.2,1.1 0.2,1.5 v 11.9 c 0,0.5 0.1,0.9 -0.2,1.4 -0.2,0.5 -0.7,0.7 -1.2,0.7 h -16.4 c -0.5,0 -0.9,-0.1 -1.4,0.2 -0.4,0.2 -0.7,0.7 -0.7,1.2 v 58.5 c 0,0.7 0.6,1.3 1.3,1.3 9.4,-0.1 14.1,-0.8 20.7,-1.8 1.7,-0.3 1.5,0.4 1.5,1.4 v 13.3 c 0,0.7 -0.4,1.4 -1.1,1.5 -12.2,1.9 -25,2.2 -37.4,1.1 -0.7,-0.1 -1.4,-0.9 -1.4,-1.6 v -166.2 c 0,-0.7 0,-1.3 1.3,-1.5 12.7,-1 24.7,-0.7 37.2,1.1 0.7,0.1 1.4,0.6 1.4,1.3 v 13.7 c 0,0.9 -0.7,1.4 -1.6,1.3 -6.7,-1.1 -13.4,-1.7 -20.8,-1.7 -0.7,0 -1.3,0.2 -1.3,1 v 57.3 c 0,0.6 -0.2,1.7 0.5,2.2 0.5,0.4 1,0.3 1.5,0.3 h 16.7 z"
   id="path20" />
<path
   class="st6"
   d="m 231.2586,198.6586 c 0,-0.5 -0.4,-1.7 -0.9,-1.9 -3.1,-1.4 -8.3,-3.3 -12.5,-4.6 -2.1,-0.6 -1.8,1.4 -1.8,1.9 v 50.4 c 0,0.7 0.6,1.4 1.4,1.4 h 12.8 c 0.8,0 1.1,-0.7 1.1,-1.3 v -45.9 z"
   id="path22" />
<path
   class="st6"
   d="m 248.2586,188.9586 v 68.8 c 0,1.4 0.2,4.3 -2.1,4.3 h -7.7 l 1.2,3.9 14.4,48.3 c 0.4,1.3 0.8,2.4 0.3,3.1 -0.4,0.5 -1.3,0.8 -2.6,1.6 -1.6,0.9 -7.3,3.8 -9.8,4.9 -1.2,0.5 -1.6,0.9 -2.4,-0.8 -0.5,-1.2 -15.6,-53.1 -17.3,-58.3 -0.7,-2.2 -1,-2.8 -1.9,-2.8 h -3.5 v 67.9 c 0,1 0.2,3.2 -1.3,3.6 -3.8,1 -9.6,2.4 -12.3,2.8 -1.5,0.3 -2.5,0.9 -2.5,-1.3 v -160.5 c 0,-1.5 -0.1,-3.2 2.1,-2.8 5.7,1.1 11.1,2.4 16.1,3.9 13.1,3.8 23.4,8.8 25.6,9.8 2.3,1.2 3.8,1.6 3.7,3.6 z"
   id="path24" />
<path
   class="st6"
   d="m 116.2586,178.5586 c 3.9,-1.3 7.7,-2.6 11.6,-3.7 3.5,-0.9 3.1,-1.1 3.1,2.8 v 138 c 0,1.6 0.7,1.8 2,2.3 2.5,0.8 11,2.8 18.7,3.8 1.8,0.2 1.7,0 1.7,2.5 v 10.6 c 0,3.7 0.4,3.4 -2.9,2.9 -14.2,-1.8 -25.8,-5.4 -29.7,-6.8 -1.5,-0.5 -2.5,-0.9 -4.6,-1.6 -1.2,-0.4 -1.3,-1.7 -1.3,-3.6 0,-1 -0.1,-140.8 0,-143.2 0,-2.4 -0.3,-3.4 1.4,-4 z"
   id="path26" />
<path
   class="st6"
   d="m 94.9586,188.6586 c 0,-0.5 0.4,-0.9 0.8,-1.1 4.2,-2.2 9,-4.4 13.7,-6.3 0.9,-0.4 1.6,-0.1 1.7,1.3 0,0.9 0,138.4 0,140.1 v 2.6 c 0,1.3 0.1,2.4 -1.8,1.6 -4.6,-2 -9.2,-4 -13.5,-6.3 -0.4,-0.3 -0.9,-1 -0.9,-1.5 z"
   id="path28" />
<path
   class="st6"
   d="m 6.1585999,172.6586 c 0,-92 74.4000001,-166.5000001 166.2000001,-166.5000001 91.8,0 166.2,74.6000001 166.2,166.5000001 0,29.6 -7.7,57.3 -21.1,81.4 13.5,24.1 21.1,51.8 21.1,81.4 0,92 -74.4,166.5 -166.2,166.5 -91.8,0 -166.2000001,-74.6 -166.2000001,-166.5 0,-29.6 7.7000001,-57.3 21.2000001,-81.4 -13.5,-24 -21.2000001,-51.8 -21.2000001,-81.4 z"
   id="path30" />
<path
   class="st6"
   d="m 22.1586,172.6586 c 0,23.6 5.4,45.9 15,65.7 20.9,-29.3 44.7,-43.1 52.4,-47.5 0.3,-0.2 1.7,-1.2 1.7,0.8 0,3.8 0.1,11 0,13.6 -0.1,3.1 0.2,3.3 -0.6,3.8 -16.7,10.7 -31.7,25.5 -43.2,42.6 -0.7,1 -1.1,2.7 0.1,4.6 1.3,2.3 12.5,18.5 27.5,30.8 v -23 c 0,-2.4 -1.4,-2.2 -3.1,-2.2 h -9.9 c -2,0 -1.8,-1.8 -1.8,-3.1 0,-1.3 0,-8.1 0,-10.6 0,-2.9 0.9,-2.5 3.1,-2.5 h 25.6 c 2.9,0 2.4,2.6 2.4,6 0,5 0.1,55.6 0,60.6 -0.1,5.2 0.4,6 -3.2,3.9 -24.3,-14.3 -40.3,-31.9 -50.8,-46.6 -9.6,19.9 -15,42.2 -15,65.7 0,83.1 67.2,150.4 150.1,150.4 82.9,0 150.1,-67.4 150.1,-150.4 0,-23.5 -5.4,-45.8 -15,-65.7 0,0.1 -2.2,-4.3 -4.1,-7.8 -7.9,0 -23.4,0 -28.1,0 -2,0 -1.7,1.8 -1.7,4 v 35.3 c 0,2.1 0.1,3.5 -1.1,4.5 -4.1,3.2 -8.9,6.4 -13,8.9 -2.7,1.7 -2,1.2 -2.1,-4.9 0,-2.5 0,-108.5 0,-113.5 0,-4.3 -0.5,-4.3 4.2,-1.4 2.4,1.5 16.5,10.6 28.5,22.9 5.7,5.9 11.5,12.3 17.4,20.6 9.6,-19.8 15,-42.1 15,-65.7 0,-83.1 -67.2,-150.5 -150.1,-150.5 -83.1,0.3 -150.3,67.7 -150.3,150.7 z"
   id="path32" />
<path
   class="st6"
   d="m 291.0586,243.5586 c -4.7,-6.1 -10.2,-12.3 -15.8,-17.5 -1.2,-1.1 -1.8,-0.8 -1.8,0.7 v 17.7 c 0,0.7 0.4,1.2 1.2,1.2 5.6,-0.1 11.6,0 16,0 1.7,0 1.1,-1.3 0.4,-2.1 z"
   id="path34" />


</svg>
